Coordinates
version=1
nRows=29
nColumns=24
inDegrees=yes

Units are S.I. units (second, meters, Newtons, ...)
Angles are in degrees.

endheader
time	pelvis_tilt	pelvis_list	pelvis_rotation	pelvis_tx	pelvis_ty	pelvis_tz	hip_flexion_r	hip_adduction_r	hip_rotation_r	knee_angle_r	ankle_angle_r	subtalar_angle_r	mtp_angle_r	hip_flexion_l	hip_adduction_l	hip_rotation_l	knee_angle_l	ankle_angle_l	subtalar_angle_l	mtp_angle_l	lumbar_extension	lumbar_bending	lumbar_rotation
      5.26500000	     13.69518163	     -3.61698559	     -3.31151092	      1.53481530	      0.72916506	     -0.27680969	    -28.88238371	      3.98666724	      3.47209358	    -20.81385041	     31.51101228	     27.13411572	      0.00000000	     16.17027525	     -2.80716245	     -4.27859077	    -16.06218317	     15.27353744	      5.20768411	      0.00000000	    -33.95278482	      3.34574428	     16.07064696
      5.27000000	     13.66351025	     -3.02457483	     -3.40082627	      1.54351769	      0.72901933	     -0.27736437	    -28.64312187	      3.26984216	      3.12120538	    -22.48219333	     30.54334884	     27.47788622	      0.00000000	     16.22337866	     -2.06196100	     -4.00081681	    -17.20357370	     14.63365918	      4.41501679	      0.00000000	    -33.72923307	      2.71951611	     15.83677782
      5.27500000	     13.66933616	     -2.40082431	     -3.45709767	      1.55223160	      0.72901006	     -0.27798036	    -28.38452043	      2.52451669	      2.69361826	    -24.21862521	     29.33385172	     27.81701843	      0.00000000	     16.22363618	     -1.26737820	     -3.67927201	    -18.38099604	     14.06161477	      3.61231661	      0.00000000	    -33.54462614	      2.08611930	     15.56622850
      5.28000000	     13.68963431	     -1.71851954	     -3.50366864	      1.56093382	      0.72910747	     -0.27856167	    -28.06184300	      1.73613586	      2.24869238	    -26.07008533	     28.00311000	     27.99965463	      0.00000000	     16.19151122	     -0.42628323	     -3.46809314	    -19.56790083	     13.53341668	      2.95405754	      0.00000000	    -33.37919189	      1.38580753	     15.25656024
      5.28500000	     13.73243477	     -1.01454219	     -3.52389521	      1.56962108	      0.72932744	     -0.27918471	    -27.69549289	      0.92770956	      1.75086692	    -27.99435364	     26.44435584	     28.14037969	      0.00000000	     16.10155279	      0.44935389	     -3.24272622	    -20.71893874	     13.11687302	      2.33774500	      0.00000000	    -33.24431801	      0.68406856	     14.90353373
      5.29000000	     13.78773888	     -0.28359152	     -3.53385335	      1.57827654	      0.72965957	     -0.27980388	    -27.26878644	      0.09380490	      1.22658636	    -29.99497614	     24.71451138	     28.16195549	      0.00000000	     15.95570103	      1.35258411	     -3.05626298	    -21.80752517	     12.81456400	      1.81144071	      0.00000000	    -33.13265303	     -0.03946352	     14.51734810
      5.29500000	     13.85267101	      0.45697273	     -3.54211954	      1.58688913	      0.73009584	     -0.28043943	    -26.78245359	     -0.75817597	      0.68318163	    -32.05189975	     22.83836265	     28.00088445	      0.00000000	     15.75792494	      2.26214918	     -2.92617216	    -22.83098049	     12.65529908	      1.40961111	      0.00000000	    -33.04386826	     -0.75941270	     14.13265004
      5.30000000	     13.91343615	      1.20679273	     -3.55258503	      1.59545069	      0.73062811	     -0.28106612	    -26.21915373	     -1.62520604	      0.14414421	    -34.15792395	     20.86920378	     27.66296677	      0.00000000	     15.50451732	      3.17884772	     -2.83087707	    -23.74538834	     12.62753685	      1.09757623	      0.00000000	    -32.96280209	     -1.48495127	     13.72048421
      5.30500000	     13.97062187	      1.95516347	     -3.55749930	      1.60392755	      0.73123508	     -0.28166471	    -25.58128769	     -2.49157251	     -0.40072024	    -36.30308886	     18.83681960	     27.05653443	      0.00000000	     15.21073122	      4.07985658	     -2.81534742	    -24.56898265	     12.73284562	      0.93623195	      0.00000000	    -32.89803039	     -2.20694668	     13.32816740
      5.31000000	     14.01139469	      2.70274863	     -3.57346444	      1.61233581	      0.73190777	     -0.28226122	    -24.85740934	     -3.37317793	     -0.93135953	    -38.46711793	     16.82962003	     26.22992359	      0.00000000	     14.86655453	      4.97857339	     -2.81924899	    -25.25878275	     12.96769360	      0.83087737	      0.00000000	    -32.82868525	     -2.92013543	     12.92492746
      5.31500000	     14.04403499	      3.43358494	     -3.59379762	      1.62067150	      0.73266146	     -0.28283461	    -24.06964506	     -4.24550735	     -1.43008634	    -40.61384109	     14.85822567	     25.19634568	      0.00000000	     14.46394769	      5.85248150	     -2.85740484	    -25.81373621	     13.32501147	      0.85906954	      0.00000000	    -32.76519365	     -3.61413538	     12.51730345
      5.32000000	     14.02968898	      4.16231427	     -3.62959184	      1.62888820	      0.73340513	     -0.28339361	    -23.15599163	     -5.12523087	     -1.91601887	    -42.78754673	     13.16605232	     23.71595330	      0.00000000	     14.06100351	      6.72048305	     -2.93239859	    -26.24878266	     13.73742360	      0.81659513	      0.00000000	    -32.66897286	     -4.30355075	     12.14947875
      5.32500000	     14.01575326	      4.87583475	     -3.66063272	      1.63702465	      0.73423397	     -0.28393643	    -22.20117765	     -5.99519903	     -2.35926126	    -44.89920194	     11.56851671	     22.10683091	      0.00000000	     13.59200128	      7.56643305	     -3.01552827	    -26.54896799	     14.21177403	      0.94014317	      0.00000000	    -32.59062823	     -4.96992463	     11.75806073
      5.33000000	     13.92710570	      5.48659796	     -3.73052011	      1.64503659	      0.73503831	     -0.28438526	    -21.09582758	     -6.73864080	     -2.63775739	    -46.98641563	     10.26212642	     19.97826298	      0.00000000	     13.15058645	      8.28531757	     -3.13849625	    -26.74577284	     14.83166791	      1.04970466	      0.00000000	    -32.44659511	     -5.54865084	     11.47528612
      5.33500000	     13.84568725	      6.09299879	     -3.79117020	      1.65297031	      0.73590492	     -0.28484178	    -19.96280153	     -7.49246573	     -2.93353098	    -48.99695743	      9.19156891	     17.73155212	      0.00000000	     12.64782115	      8.99702124	     -3.28680431	    -26.82645564	     15.45076236	      1.24354165	      0.00000000	    -32.32437917	     -6.10774952	     11.16929005
      5.34000000	     13.74770336	      6.65316923	     -3.86247770	      1.66080644	      0.73680914	     -0.28526544	    -18.76751253	     -8.19259191	     -3.15508542	    -50.93090389	      8.36828560	     15.26707165	      0.00000000	     12.10803490	      9.65774574	     -3.43111435	    -26.79011517	     16.08363407	      1.45006241	      0.00000000	    -32.19926118	     -6.62005554	     10.88449094
      5.34500000	     13.62856906	      7.16517430	     -3.94325663	      1.66856126	      0.73774818	     -0.28565902	    -17.50884894	     -8.83600450	     -3.30827715	    -52.77339381	      7.77281976	     12.62558834	      0.00000000	     11.53786290	     10.26704724	     -3.55880109	    -26.64483263	     16.72326489	      1.67400214	      0.00000000	    -32.06167926	     -7.08108419	     10.62496451
      5.35000000	     13.49326414	      7.62866040	     -4.03300255	      1.67624181	      0.73871751	     -0.28603007	    -16.19637698	     -9.42254670	     -3.40245123	    -54.51457204	      7.40042768	      9.84554310	      0.00000000	     10.93705389	     10.82743412	     -3.66110462	    -26.40025830	     17.35505678	      1.90465253	      0.00000000	    -31.91567567	     -7.49067134	     10.39642310
      5.35500000	     13.34130899	      8.03219506	     -4.12923697	      1.68384782	      0.73970408	     -0.28637848	    -14.83428357	     -9.93562022	     -3.44007833	    -56.14266620	      7.25170040	      6.95857136	      0.00000000	     10.31813805	     11.32713275	     -3.73543796	    -26.08389829	     17.97502656	      2.13260087	      0.00000000	    -31.75991345	     -7.83600663	     10.21419581
      5.36000000	     13.18361350	      8.37517996	     -4.22945984	      1.69137294	      0.74071252	     -0.28670395	    -13.43603087	    -10.37348329	     -3.42869681	    -57.65213251	      7.29820911	      4.03478738	      0.00000000	      9.67925154	     11.76530046	     -3.78744923	    -25.71435470	     18.56107259	      2.33296531	      0.00000000	    -31.60900393	     -8.11778601	     10.06640036
      5.36500000	     13.03228965	      8.68594006	     -4.35061657	      1.69887212	      0.74176759	     -0.28700586	    -12.02049624	    -10.77125044	     -3.35411286	    -59.02541388	      7.46184308	      1.15821495	      0.00000000	      8.98456090	     12.18096093	     -3.78919559	    -25.24110794	     19.09643961	      2.47421232	      0.00000000	    -31.46469829	     -8.36151322	      9.89833333
      5.37000000	     12.86874843	      8.91597449	     -4.46646852	      1.70626480	      0.74281300	     -0.28729400	    -10.56469127	    -11.06085003	     -3.23364143	    -60.27491751	      7.77334277	     -1.66328197	      0.00000000	      8.30926533	     12.51458849	     -3.76312775	    -24.78253065	     19.59437823	      2.58530362	      0.00000000	    -31.32537044	     -8.51913830	      9.79340519
      5.37500000	     12.71320886	      9.12108284	     -4.60172318	      1.71367341	      0.74389492	     -0.28755675	     -9.10508483	    -11.32048060	     -3.07408050	    -61.37487226	      8.16479164	     -4.30346577	      0.00000000	      7.57321517	     12.83622403	     -3.66794767	    -24.21583698	     20.03431089	      2.63544161	      0.00000000	    -31.18281116	     -8.65250416	      9.68497232
      5.38000000	     12.55120481	      9.26045979	     -4.73777740	      1.72100451	      0.74496029	     -0.28782092	     -7.62003928	    -11.49135386	     -2.86806230	    -62.34168205	      8.65385938	     -6.74922593	      0.00000000	      6.84878927	     13.09600484	     -3.52923429	    -23.65827616	     20.43495071	      2.62687058	      0.00000000	    -31.05049403	     -8.70780853	      9.60377086
      5.38500000	     12.39393714	      9.35764582	     -4.88446666	      1.72831254	      0.74601445	     -0.28804884	     -6.12894268	    -11.60299000	     -2.63087201	    -63.17164672	      9.23805857	     -8.92125240	      0.00000000	      6.10591816	     13.32034919	     -3.33223261	    -23.07348261	     20.79234205	      2.55840249	      0.00000000	    -30.91803697	     -8.72320937	      9.52749901
      5.39000000	     12.23066003	      9.40914480	     -5.02745717	      1.73558635	      0.74704208	     -0.28827058	     -4.62780355	    -11.64454891	     -2.36297193	    -63.86295578	      9.89387052	    -10.77796083	      0.00000000	      5.36377973	     13.50482526	     -3.09125703	    -22.47631715	     21.11183724	      2.41549186	      0.00000000	    -30.78953169	     -8.68493175	      9.45416364
      5.39500000	     12.10894286	      9.45645983	     -5.18231583	      1.74285418	      0.74806554	     -0.28845324	     -3.17290059	    -11.67676207	     -2.08683326	    -64.41712801	     10.66148455	    -12.25869298	      0.00000000	      4.57012204	     13.69166394	     -2.82978137	    -21.85757109	     21.37830111	      2.23356280	      0.00000000	    -30.70524760	     -8.64682408	      9.33558572
      5.40000000	     11.96400971	      9.42459772	     -5.33856959	      1.75009320	      0.74902792	     -0.28862984	     -1.69793371	    -11.59905966	     -1.77439138	    -64.83082361	     11.49738867	    -13.38674123	      0.00000000	      3.79982453	     13.80523131	     -2.48413200	    -21.24709212	     21.65333947	      1.96207345	      0.00000000	    -30.59857471	     -8.52342887	      9.27508324
      5.40500000	     11.89405170	      9.34905561	     -5.43322660	      1.75735646	      0.75002714	     -0.28879776	     -0.36136459	    -11.46559824	     -1.54409637	    -65.07387315	     12.45017873	    -14.05148593	      0.00000000	      2.92695779	     13.86775382	     -2.08641723	    -20.62570140	     21.95967933	      1.88627538	      0.00000000	    -30.58232580	     -8.34036124	      9.20097286
